<svg xmlns="http://www.w3.org/2000/svg" width="832.1786" height="196.1586" viewBox="0 0 832.1786 196.1586">
  <g id="e370c4f2-4037-45f5-9ec4-fec6b904d840" data-name="Layer 2">
    <g id="b7a31349-fb41-4db5-8ea6-8d9eb293189c" data-name="Layer 1">
      <g>
        <path d="M0,162.9629c.6884-1.7394,1.0906-3.69,2.1639-5.1456a4.97,4.97,0,0,1,3.655-1.76c.742.0255,1.8163,1.7478,2.0683,2.86,1.9359,8.5452,8.1091,12.2767,16.6655,9.8847,8.021-2.2423,13.96-7.5194,18.4863-14.0809a114.8528,114.8528,0,0,0,10.6751-18.9944c8.6487-19.7482,16.4778-39.8584,25.2775-59.5364,10.9253-24.4316,27.1962-44.3284,51.3641-56.9668a9.0769,9.0769,0,0,0,1.3071-1.1918c-11.776-2.1542-22.8523-.6776-33.7447,2.5307-13.4565,3.9634-25.25,10.7153-33.79,22.1241-6.4321,8.5932-9.2339,18.3419-6.8894,29.03.5993,2.7319,2.2862,5.349,3.9376,7.6918,1.67,2.37,1.4019,4.8526-1.4535,5.2844a14.1658,14.1658,0,0,1-6.9376-.7857c-17.0458-6.61-23.981-24.1111-16.3291-40.7348A46.8226,46.8226,0,0,1,51.8937,24.345C84.8272.9558,120.7906-6.1635,159.8337,5.53a58.6807,58.6807,0,0,1,27.2835,17.1581c16.57,18.5335,16.0812,43.1271-1.0714,61.19-9.372,9.8694-20.8425,16.1869-33.8282,19.9273-1.3872.4-2.7806.7777-4.3961,1.2286a102.09,102.09,0,0,1,8.2459,6.3982c12.82,12.193,15.2114,27.0346,10.46,43.4457-8.2976,28.6575-38.3959,46.4256-67.4553,39.9487-17.4361-3.8863-24.7487-12.8551-25.8612-32.42-2.4914,3.1246-4.57,5.8892-6.8114,8.5151-9.3024,10.898-20.57,18.7441-35.1379,20.0519-5.6014.5027-11.56-.5061-17.0613-1.9478-7.663-2.0081-11.67-8.1616-14.2-15.323Zm105.3173-75.16c4.18.4959,7.836,1.1252,11.5161,1.3315,13.672.7664,26.7628-1.2356,38.1578-9.4543,18.91-13.6385,19.3671-38.4241,1.113-52.3285-7.5022-5.7145-7.8874-5.5868-15.2244.515C122.04,43.5351,114.6148,65.859,105.3173,87.8031ZM81.4518,146.174c3.564-.988,6.3785-2.0656,9.285-2.4535a6.1011,6.1011,0,0,1,4.7284,1.3786c.6756.7471-.2011,2.963-.49,4.5034-.5888,3.134-1.9289,6.2941-1.7505,9.3733.5043,8.7007,6.02,15.7911,12.3809,16.6178a21.24,21.24,0,0,0,16.3994-4.149c8.9527-6.9341,13.2348-16.6774,15.812-27.2046,3.278-13.39-1.3456-23.5977-14.133-29.1072-7.66-3.3-16.1583-4.6915-24.3417-6.6872-.88-.2147-2.77,1.0139-3.1855,1.9977C91.2023,122.1649,86.4391,133.9671,81.4518,146.174Z"/>
        <path d="M697.6874,93.5758c11.1481-24.8254,22.0513-49.1091,32.9584-73.391,2.0127-4.4809,3.9-9.0272,6.1447-13.3895.7085-1.3772,2.3423-3.1357,3.6369-3.2079,6.0738-.3387,12.1771-.1506,18.9739-.1506-.89,2.2243-1.4773,3.8512-2.1813,5.4258Q726.07,78.5282,694.9342,148.2a56.9436,56.9436,0,0,0-3.6507,10.5009c-1.3234,5.8437,1.3981,9.4442,7.24,8.6186a36.79,36.79,0,0,0,13.5815-4.9079c11.6536-7.0788,20.6324-17.2211,28.3555-28.2108,9.4911-13.5053,18.153-27.5972,27.0229-41.5314,1.7384-2.7307,2.7922-5.8974,4.1588-8.8643,2.9723-6.4527,9.7363-9.7938,15.7077-7.7569,4.04,1.3779,6.3838,4.577,4.9914,8.5842a27.5612,27.5612,0,0,1-6.134,10.4837c-6.8909,6.7608-7.5005,9.4025-1.8958,17.04,1.4108,1.9224,2.7749,3.8967,4.3549,5.6744,13.171,14.8187,12.3977,30.875,3.7241,46.6927a15.9489,15.9489,0,0,0-2.2342,5.9937c1.7809-.6847,3.9574-.935,5.2721-2.1317,4.8117-4.38,9.8989-8.6443,13.82-13.7655,4.4021-5.7495,7.8067-12.2955,11.3254-18.6715,1.318-2.3884,2.7006-2.8052,5.017-2.0009,5.4228,1.8828,8.0011,6.737,5.804,11.9889-8.5311,20.3929-21.306,36.7329-43.9215,42.2024-5.5127,1.3332-11.7132-.1984-17.5986-.37a23.7388,23.7388,0,0,0-5.0669.1236c-5.5355,1.0511-11.0009,3.0341-16.5572,3.2947-11.6013.5443-21.946-2.4214-27.8645-13.8218-10.0826,6.1312-20.4066,10.6949-32.183,11.6739-11.4161.949-19.9927-4.67-21.6131-15.749a4.2833,4.2833,0,0,0-.67-1.2176c-3.9622,3.1457-7.6048,6.6889-11.848,9.2291a56.9226,56.9226,0,0,1-14.5446,6.5247c-9.95,2.589-14.8612.1716-19.5663-7.58-7.2937,2.7821-14.209,6.3994-21.5638,8.0092-12.9009,2.8237-24.7407-3.8578-27.7426-14.5327-2.1209-7.5417-.6638-14.7635,2.4931-21.7108,4.6766-10.2915,9.4529-20.5378,14.1882-30.8027.498-1.0795,1.3507-2.1266,1.4411-3.2373.226-2.7741,1.1186-6.1783-.1036-8.2292-1.95-3.2721-6.0506-2.0946-8.41-.329-3.4254,2.5627-6.8861,5.7292-8.8913,9.42-6.9539,12.8013-12.8324,26.1956-19.9763,38.8822-7.79,13.8334-18.4784,24.9319-34.37,29.5054a47.1362,47.1362,0,0,1-12.2974,1.8328c-10.658.1343-15.7191-4.55-19.3571-17.3318-3.0878,2.6508-5.7819,5.7888-9.17,7.69-5.9017,3.3107-11.993,6.7025-18.4392,8.5237-9.1418,2.5828-14.2937-.3334-18.2419-7.6792-7.3113,2.7385-14.38,5.8113-21.72,7.953a28.1153,28.1153,0,0,1-11.5221.3557c-13.5436-1.946-20.6879-13.6449-16.1257-27.7152,3.0091-9.28,7.97-17.9106,11.64-27a129.09,129.09,0,0,0,5.7916-18.1817c.49-2.0441-.3876-5.7-1.8569-6.5741-1.5149-.9013-5.11-.0263-6.7378,1.3352-3.4971,2.9256-7.1283,6.22-9.2667,10.1469-8.458,15.5309-16.4146,31.3366-24.4412,47.0994-2.8344,5.5662-5.2559,11.3421-8.06,16.9249-.5672,1.1294-1.9851,2.5619-3.0492,2.5943-7.4145.2256-14.8392.1192-23.0983.1192,1.0118-2.469,1.658-4.2257,2.4371-5.9213q34.2823-74.6138,68.5962-149.213c4.7166-10.2506,13.5728-15.11,23.9378-17.5391,4.9976-1.1714,7.4779,1.6548,6.1517,6.6923a59.6322,59.6322,0,0,1-3.8384,9.4848q-14.3453,31.2264-28.7635,62.4193c-.4673,1.0147-.8126,2.0855-1.2031,3.1,4.0767-2.16,7.7741-4.79,11.89-6.1759,12.6931-4.2735,23.642,3.2527,23.5831,16.6477-.0254,5.7727-1.7288,11.7609-3.754,17.2514-3.341,9.0576-7.69,17.7387-11.343,26.6889a35.51,35.51,0,0,0-2.4881,9.8741c-.4854,5.0438,1.7159,6.9967,6.8622,6.9606,6.368-.0447,15.5545-7.1473,17.4051-13.5032,6.5606-22.5322,19.6009-40.5845,38.1254-54.75,7.0635-5.4011,14.9131-9.2535,23.938-10.1942,5.2278-.5449,10.1169.0836,14.0049,4.097,3.111-2.9653,10.4826-3.7428,22.639-2.26a53.5706,53.5706,0,0,1-1.7393,5.331c-7.6691,17.2633-15.4321,34.485-23.0648,51.7643a40.2627,40.2627,0,0,0-3.4238,10.0734c-.3714,2.5131-.0482,6.5,1.5232,7.5946a10.3615,10.3615,0,0,0,8.64.8744,34.1628,34.1628,0,0,0,10.3054-7.4939c8.7773-8.8428,13.0258-20.5342,18.7969-31.2489,2.4643-4.5754,4.4824-9.3931,6.655-14.123,1.9553-4.2568,3.2721-8.1881,2.2015-13.4231-2.3023-11.2584,8.844-21.5765,20.0856-19.5918,5.2035.9186,9.1488,5.61,9.6178,11.4361.3256,4.0446,2.172,4.8468,5.8139,3.0119,3.0678-1.5457,6.7945-4.1889,9.5164-3.5057,5.3352,1.3391,10.3517,4.3771,15.0715,7.3846.9793.624.7757,4.4742-.0421,6.3254-5.41,12.245-11.4235,24.2292-16.6388,36.5528a90.352,90.352,0,0,0-5.557,19.1076c-.86,4.7836,1.6257,6.63,6.6292,6.5666,6.8-.0859,15.62-7.2792,17.7419-14.3206,6.8133-22.61,20.0362-40.72,38.9294-54.706,6.52-4.8267,13.7273-8.2632,21.9637-9.318C687.8564,88.5515,692.9564,89.0891,697.6874,93.5758Zm-52.41,57.6741c-.3559,11.6281,4.36,15.2109,12.7194,12.3254a19.7594,19.7594,0,0,0,11.7554-10.9706q7.9226-17.2352,15.894-34.4479c1.4307-3.1075,3.0136-6.1679,4.15-9.3831,1.92-5.4353-.9279-8.577-6.5252-7.2347a24.7512,24.7512,0,0,0-7.0692,2.6494C657.5085,115.5766,649.2265,133.5074,645.2778,151.25Zm-180.7247.897c-.16,10.73,4.5826,14.6643,12.5205,11.3156,4.2325-1.7855,8.8619-5.2257,10.8944-9.1659,7.5631-14.6612,14.2218-29.7958,20.9349-44.88.8243-1.8522.7578-5.206-.4094-6.5256-1.1487-1.2987-4.3794-1.582-6.4251-1.1172-8.1819,1.8594-14.3481,7.0468-19.6614,13.2538C472.698,126.37,466.65,139.4248,464.5531,152.1469Zm270.7787,25.258c1.5952.8784,3.0954,2.0818,4.8015,2.58,8.3574,2.4409,15.2819-.4551,20.9574-6.4828,7.8215-8.3066,10.8359-18.6634,11.4751-29.75.404-7.01.3834-14.0767-2.9383-20.3714l-19.5811,27.9606c4.2324,3.7926,4.6768,8.8723,2.56,14.3241C749.624,173.3445,743.6945,176.7371,735.3318,177.4049Z"/>
        <path d="M265.379,183.0239c-7.5627,2.04-14.9694,4.9449-22.6186,5.8916-12.1033,1.4981-18.2608-3.2156-23.0575-15.5982-3.802,3.0883-7.447,6.3717-11.4188,9.1958-5.2878,3.76-11.1285,6.302-17.8018,6.3909-12.8345.1708-21.2134-9.9712-18.0926-22.5232,1.2783-5.1415,3.61-10.0537,5.7564-14.9409q11.6654-26.5563,23.55-53.016c3.2087-7.1623,14.0869-12.86,21.8472-11.6267,3.8939.6188,4.9466,2.8595,3.122,7.3581-3.5211,8.6809-7.1875,17.3028-10.7926,25.95-4.4064,10.5687-8.87,21.1142-13.1777,31.7228a42.0829,42.0829,0,0,0-2.5137,8.5157c-.9349,5.3578,1.6744,8.1712,7.0324,7.19,7.88-1.4424,12.6142-6.9934,15.7833-13.8729,4.6666-10.13,9.0506-20.391,13.5528-30.5971,3.0613-6.94,6.4435-13.76,9.077-20.8589a17.9543,17.9543,0,0,1,11.7235-11.3392,57.206,57.206,0,0,1,10.322-2.7218c5.7464-.8185,7.5169,1.7216,5.1487,7-7.6106,16.9615-15.3922,33.8479-22.822,50.8878a63.551,63.551,0,0,0-4.0939,14.0346c-.9586,5.31,1.81,8.0361,7.1263,7.3494,4.5064-.5821,8.3667-1.9209,9.8729-7.3928.9765-3.547,3.4205-6.97,5.9622-9.7616a265.8058,265.8058,0,0,0,44.9977-66.779c2.3655-5.0716,6.2561-8.2313,12.2-8.2242,7.0265.0083,10.7,4.6624,8.0985,11.1711a26.2318,26.2318,0,0,1-6.3,8.9633c-6.3049,5.9537-6.8577,8.8069-1.8111,15.583,2.3136,3.1066,4.5916,6.2449,7.0266,9.255,8.6768,10.7263,9.877,22.5512,5.46,35.3043-8.1754,23.6062-36.1244,40.0345-58.929,34.1215C274.4743,188.3246,269.8191,185.1446,265.379,183.0239Zm12.8229-6.5779-.4315,1.2064c2.5553.849,5.0588,2.1751,7.6754,2.4592,8.4726.92,15.0067-2.7864,20.0106-9.4029,6.9293-9.1624,9.5961-19.7813,9.5392-31.0024-.0283-5.5956-1.3911-11.1843-2.2894-17.8013L292.26,150.88c4.4866,4.1606,4.739,9.4038,2.2653,15.1679C291.4363,173.2446,285.5776,175.991,278.2019,176.446Z"/>
        <path d="M767.5723,48.9455c-5.9519-1.6958-7.5272-3.4976-6.673-9.0984,1.8917-12.4041,8.895-21.3156,20.2091-26.4652,6.2767-2.8569,10.5927.1906,10.0053,7.0032a41.3871,41.3871,0,0,1-3.4846,13.6927c-5.5919,12.0065-13.1132,22.7141-24.0224,30.593a24.9053,24.9053,0,0,1-7.21,3.2664c-.9639.2985-2.3141-.65-3.4883-1.0306.4006-1.205.4711-2.7213,1.2613-3.5591,2.8565-3.0292,6.03-5.7579,8.9319-8.7468A71.8971,71.8971,0,0,0,767.5723,48.9455Z"/>
        <path d="M105.3173,87.8031C114.6148,65.859,122.04,43.5351,140.88,27.8668c7.337-6.1018,7.7222-6.23,15.2244-.515,18.2541,13.9044,17.7965,38.69-1.113,52.3285-11.395,8.2187-24.4858,10.2207-38.1578,9.4543C113.1533,88.9283,109.4969,88.299,105.3173,87.8031Z" style="fill: #fff"/>
      </g>
    </g>
  </g>
</svg>
